<svg clip-rule="evenodd" fill-rule="evenodd" stroke-linejoin="round" stroke-miterlimit="2" viewBox="0 0 630 630" xmlns="http://www.w3.org/2000/svg" xmlns:xlink="http://www.w3.org/1999/xlink"><linearGradient id="a" gradientTransform="matrix(-417.827 407.382 -408.89 -419.375 525.238 101.762)" gradientUnits="userSpaceOnUse" x1="0" x2="1" y1="0" y2="0"><stop offset="0" stop-color="#0055a4"/><stop offset=".5" stop-color="#00b1d0"/><stop offset="1" stop-color="#00a8ad"/></linearGradient><path d="m627.083 315.898c0-172.586-139.913-312.5-312.5-312.5-11.794 0-23.437.655-34.89 1.928-1.742.191-3.478.399-5.209.625-76.289 9.768-143.974 47.054-192.794 101.58-1.192 1.325-2.373 2.667-3.536 4.016-47.396 54.791-76.071 126.22-76.071 204.351 0 172.587 139.913 312.5 312.5 312.5s312.5-139.913 312.5-312.5z" fill="url(#a)" fill-rule="nonzero"/><g fill="#fff"><path d="m259.086 208.32c-16.031 0-25.464-9.607-25.464-21.124s9.433-21.124 23.612-21.124c9.665 0 17.131 4.572 20.893 10.359l-5.846 4.283c-2.546-5.382-7.812-8.276-15.047-8.276-10.417 0-16.668 6.309-16.668 14.758s6.251 14.758 18.52 14.758c4.688 0 9.839-1.216 12.212-3.067v-9.376h-22.745l2.431-6.366h27.258v19.33c-2.951 1.678-8.97 5.845-19.156 5.845" fill-rule="nonzero"/><path d="m285.762 164.047h6.365v43.406h-6.365z"/><path d="m298.204 191.537c0-9.087 7.234-16.784 18.172-16.784 10.881 0 18.173 7.697 18.173 16.784 0 9.144-7.292 16.783-18.173 16.783-10.938 0-18.172-7.639-18.172-16.783m29.69 0c0-6.598-5.036-11.228-11.518-11.228-6.713 0-11.517 4.63-11.517 11.228 0 6.655 4.804 11.227 11.517 11.227 6.482 0 11.518-4.572 11.518-11.227" fill-rule="nonzero"/><path d="m366.029 183.492-9.491 23.96h-7.292l-12.674-31.831h7.234l9.087 24.77 9.143-24.77h8.102l9.087 24.712 9.144-24.712h7.176l-12.674 31.831h-7.292z" fill-rule="nonzero"/><path d="m184.007 302.986 32.498 120.042h-38.939l-16.689-71.733-9.662 20.494v51.239h-37.477v-195.288h37.477v76.416l25.473-76.123h43.333z" fill-rule="nonzero"/><path d="m234.359 227.74h37.476v195.287h-37.476z"/><path d="m405.635 294.787v63.536c0 38.647-15.223 64.705-62.362 64.705h-49.774v-195.288h49.774c47.139 0 62.362 27.523 62.362 67.047m-37.767-2.048c0-17.274-7.322-28.107-24.888-28.107h-12.005v121.798h12.298c16.982 0 24.595-11.712 24.595-28.107z" fill-rule="nonzero"/><path d="m413.832 368.569 35.133-4.392c-.292 18.447 4.1 28.401 14.639 28.401 9.662 0 14.932-6.441 14.932-16.396 0-11.419-5.563-20.201-16.102-29.278l-15.811-13.761c-18.445-15.812-28.692-35.427-28.692-59.435 0-24.301 9.661-50.068 47.43-50.068 31.036 0 45.675 18.155 50.067 52.118l-32.207 7.319c-1.171-18.154-5.269-24.887-14.931-24.887-9.076 0-12.882 6.149-12.882 15.225 0 12.296 4.683 19.324 18.444 31.621l12.883 11.418c14.932 13.176 28.693 28.401 28.693 58.848 0 33.964-17.274 51.825-52.408 51.825-38.062 0-49.188-26.058-49.188-58.558" fill-rule="nonzero"/></g></svg>